<svg xmlns="http://www.w3.org/2000/svg" viewBox="0 0 1200 900" preserveAspectRatio="xMidYMid slice" aria-hidden="true" focusable="false" pointer-events="none">
  <defs>
    <linearGradient id="cream" x1="0" y1="0" x2="0" y2="1">
      <stop stop-color="#fff4d7"/>
      <stop offset="1" stop-color="#f4ddae"/>
    </linearGradient>
    <pattern id="dots" width="34" height="34" patternUnits="userSpaceOnUse">
      <circle cx="5" cy="5" r="2" fill="#263b3c" fill-opacity=".08"/>
    </pattern>
  </defs>
  <rect width="1200" height="900" fill="url(#cream)"/>
  <rect width="1200" height="900" fill="url(#dots)"/>
  <path d="M0 734c181-54 337-38 474 19 176 74 303 83 437 38 102-34 198-34 289-6v115H0z" fill="#70c2b4" fill-opacity=".36"/>
  <g fill="none" stroke="#263b3c" stroke-linecap="round" stroke-linejoin="round">
    <path d="M72 163c93-55 184-67 273-36" stroke-width="7"/>
    <path d="M88 193c65-33 127-43 187-29" stroke-width="3"/>
    <path d="M263 97l12 30 32 2-25 20 8 31-27-17-27 17 8-31-25-20 32-2z" fill="#f6bf3c" stroke-width="6"/>
    <path d="M476 124c45 35 61 79 50 133" stroke-width="5" stroke-dasharray="3 16"/>
    <path d="M463 116l28 5-13 25" stroke-width="5"/>
  </g>
  <g transform="translate(687 190)" stroke="#263b3c" stroke-linecap="round" stroke-linejoin="round">
    <path d="M125 92c19-54 73-82 130-65 49 15 79 61 74 111" fill="#f6bf3c" stroke-width="8"/>
    <path d="M221 27l-1-34" fill="none" stroke-width="8"/>
    <circle cx="220" cy="-12" r="11" fill="#ee705e" stroke-width="6"/>
    <path d="M80 252c0-92 75-167 167-167s167 75 167 167v191c0 67-54 121-121 121H201c-67 0-121-54-121-121z" fill="#57b6aa" stroke-width="10"/>
    <path d="M111 238c60-38 178-47 269-3" fill="none" stroke="#fff6da" stroke-width="15" opacity=".75"/>
    <ellipse cx="184" cy="261" rx="25" ry="31" fill="#fff9e8" stroke-width="8"/>
    <ellipse cx="312" cy="261" rx="25" ry="31" fill="#fff9e8" stroke-width="8"/>
    <circle cx="190" cy="267" r="9" fill="#263b3c" stroke="none"/>
    <circle cx="306" cy="267" r="9" fill="#263b3c" stroke="none"/>
    <path d="M210 326c27 20 52 20 78 0" fill="none" stroke-width="8"/>
    <path d="M84 351l-61 91 65 13m324-104l60 91-64 13" fill="none" stroke-width="16"/>
    <path d="M26 440l50-126 35 13-50 126z" fill="#ee705e" stroke-width="7"/>
    <path d="M76 314l22-34 13 47z" fill="#f8d69a" stroke-width="6"/>
    <path d="M165 566l-15 73m181-73l15 73" fill="none" stroke-width="15"/>
    <path d="M123 640h59m137 0h59" fill="none" stroke-width="19"/>
  </g>
  <g fill="#ee705e" stroke="#263b3c" stroke-linejoin="round" stroke-width="5">
    <path d="M472 522l29 18-17 30-30-18z"/>
    <path d="M566 647l38-11 10 37-38 10z" fill="#f6bf3c"/>
    <path d="M379 692l28-25 25 28-28 25z" fill="#fff9e8"/>
  </g>
</svg>
